<svg width="106" height="34" viewBox="0 0 106 34" fill="none" xmlns="http://www.w3.org/2000/svg">
<path d="M18.06 7.136C17.892 6.968 17.58 6.74 17.124 6.452C16.692 6.164 16.152 5.888 15.504 5.624C14.88 5.336 14.196 5.096 13.452 4.904C12.708 4.712 11.952 4.616 11.184 4.616C9.81597 4.616 8.79597 4.868 8.12397 5.372C7.45197 5.876 7.11597 6.584 7.11597 7.496C7.11597 8.024 7.23597 8.468 7.47597 8.828C7.73997 9.164 8.11197 9.464 8.59197 9.728C9.07197 9.992 9.67197 10.232 10.392 10.448C11.136 10.664 11.988 10.892 12.948 11.132C14.196 11.468 15.324 11.828 16.332 12.212C17.364 12.596 18.228 13.076 18.924 13.652C19.644 14.228 20.196 14.924 20.58 15.74C20.964 16.532 21.156 17.516 21.156 18.692C21.156 20.06 20.892 21.236 20.364 22.22C19.86 23.18 19.164 23.96 18.276 24.56C17.412 25.16 16.404 25.604 15.252 25.892C14.124 26.156 12.936 26.288 11.688 26.288C9.76797 26.288 7.87197 26 5.99997 25.424C4.12797 24.848 2.44797 24.032 0.959969 22.976L3.15597 18.692C3.37197 18.908 3.75597 19.196 4.30797 19.556C4.88397 19.892 5.55597 20.24 6.32397 20.6C7.09197 20.936 7.94397 21.224 8.87997 21.464C9.81597 21.704 10.776 21.824 11.76 21.824C14.496 21.824 15.864 20.948 15.864 19.196C15.864 18.644 15.708 18.176 15.396 17.792C15.084 17.408 14.64 17.072 14.064 16.784C13.488 16.496 12.792 16.232 11.976 15.992C11.16 15.752 10.248 15.488 9.23997 15.2C8.01597 14.864 6.94797 14.504 6.03597 14.12C5.14797 13.712 4.40397 13.244 3.80397 12.716C3.20397 12.164 2.74797 11.54 2.43597 10.844C2.14797 10.124 2.00397 9.272 2.00397 8.288C2.00397 6.992 2.24397 5.84 2.72397 4.832C3.20397 3.824 3.86397 2.984 4.70397 2.312C5.56797 1.64 6.56397 1.136 7.69197 0.799998C8.81997 0.439999 10.032 0.259999 11.328 0.259999C13.128 0.259999 14.784 0.547999 16.296 1.124C17.808 1.676 19.128 2.336 20.256 3.104L18.06 7.136ZM35.7461 26.36C34.2581 26.36 32.9621 26.036 31.8581 25.388C30.7541 24.716 29.8901 23.816 29.2661 22.688V33.668H24.4421V7.136H28.6541V10.376C29.3501 9.272 30.2501 8.408 31.3541 7.784C32.4581 7.136 33.7301 6.812 35.1701 6.812C36.4421 6.812 37.6181 7.076 38.6981 7.604C39.7781 8.108 40.7021 8.804 41.4701 9.692C42.2621 10.556 42.8741 11.588 43.3061 12.788C43.7621 13.964 43.9901 15.212 43.9901 16.532C43.9901 17.9 43.7861 19.184 43.3781 20.384C42.9701 21.584 42.3941 22.628 41.6501 23.516C40.9301 24.404 40.0661 25.1 39.0581 25.604C38.0501 26.108 36.9461 26.36 35.7461 26.36ZM34.1261 22.256C34.8461 22.256 35.5061 22.1 36.1061 21.788C36.7301 21.476 37.2581 21.056 37.6901 20.528C38.1221 20 38.4581 19.388 38.6981 18.692C38.9381 17.996 39.0581 17.276 39.0581 16.532C39.0581 15.74 38.9261 15.008 38.6621 14.336C38.3981 13.64 38.0261 13.04 37.5461 12.536C37.0901 12.032 36.5381 11.636 35.8901 11.348C35.2661 11.06 34.5821 10.916 33.8381 10.916C33.3821 10.916 32.9141 11 32.4341 11.168C31.9541 11.312 31.5101 11.528 31.1021 11.816C30.6941 12.104 30.3221 12.44 29.9861 12.824C29.6741 13.208 29.4341 13.628 29.2661 14.084V18.512C29.6981 19.592 30.3581 20.492 31.2461 21.212C32.1341 21.908 33.0941 22.256 34.1261 22.256ZM52.4065 26.36C51.4945 26.36 50.6425 26.216 49.8505 25.928C49.0585 25.616 48.3745 25.196 47.7985 24.668C47.2225 24.116 46.7665 23.48 46.4305 22.76C46.1185 22.04 45.9625 21.248 45.9625 20.384C45.9625 19.496 46.1545 18.68 46.5385 17.936C46.9465 17.168 47.4985 16.52 48.1945 15.992C48.9145 15.464 49.7665 15.056 50.7505 14.768C51.7345 14.456 52.8145 14.3 53.9905 14.3C54.8305 14.3 55.6465 14.372 56.4385 14.516C57.2545 14.66 57.9745 14.864 58.5985 15.128V14.048C58.5985 12.8 58.2385 11.84 57.5185 11.168C56.8225 10.496 55.7785 10.16 54.3865 10.16C53.3785 10.16 52.3945 10.34 51.4345 10.7C50.4745 11.06 49.4905 11.588 48.4825 12.284L47.0065 9.224C49.4305 7.616 52.0465 6.812 54.8545 6.812C57.5665 6.812 59.6665 7.484 61.1545 8.828C62.6665 10.148 63.4225 12.068 63.4225 14.588V20.456C63.4225 20.96 63.5065 21.32 63.6745 21.536C63.8665 21.752 64.1665 21.872 64.5745 21.896V26C63.7585 26.168 63.0505 26.252 62.4505 26.252C61.5385 26.252 60.8305 26.048 60.3265 25.64C59.8465 25.232 59.5465 24.692 59.4265 24.02L59.3185 22.976C58.4785 24.08 57.4585 24.92 56.2585 25.496C55.0585 26.072 53.7745 26.36 52.4065 26.36ZM53.7745 22.832C54.5905 22.832 55.3585 22.688 56.0785 22.4C56.8225 22.112 57.3985 21.728 57.8065 21.248C58.3345 20.84 58.5985 20.384 58.5985 19.88V17.72C58.0225 17.504 57.3985 17.336 56.7265 17.216C56.0545 17.072 55.4065 17 54.7825 17C53.5345 17 52.5145 17.288 51.7225 17.864C50.9305 18.416 50.5345 19.124 50.5345 19.988C50.5345 20.804 50.8465 21.488 51.4705 22.04C52.0945 22.568 52.8625 22.832 53.7745 22.832ZM79.1624 11.312C77.6984 11.336 76.3904 11.624 75.2384 12.176C74.0864 12.704 73.2584 13.508 72.7544 14.588V26H67.9304V7.136H72.3584V11.168C72.6944 10.52 73.0904 9.944 73.5464 9.44C74.0024 8.912 74.4944 8.456 75.0224 8.072C75.5504 7.688 76.0784 7.4 76.6064 7.208C77.1584 6.992 77.6864 6.884 78.1904 6.884C78.4544 6.884 78.6464 6.884 78.7664 6.884C78.9104 6.884 79.0424 6.896 79.1624 6.92V11.312ZM99.7083 24.344C98.7723 24.92 97.7643 25.376 96.6843 25.712C95.6043 26.024 94.4523 26.18 93.2283 26.18C91.3563 26.18 89.6523 25.808 88.1163 25.064C86.6043 24.32 85.2963 23.348 84.1923 22.148C83.1123 20.948 82.2723 19.568 81.6723 18.008C81.0723 16.448 80.7723 14.852 80.7723 13.22C80.7723 11.516 81.0843 9.884 81.7083 8.324C82.3563 6.764 83.2323 5.384 84.3363 4.184C85.4643 2.984 86.7963 2.036 88.3323 1.34C89.8683 0.619998 91.5363 0.259999 93.3363 0.259999C95.1843 0.259999 96.8643 0.643999 98.3763 1.412C99.9123 2.156 101.22 3.14 102.3 4.364C103.38 5.588 104.22 6.98 104.82 8.54C105.42 10.1 105.72 11.684 105.72 13.292C105.72 14.948 105.42 16.532 104.82 18.044C104.244 19.556 103.428 20.9 102.372 22.076L105.864 26H101.184L99.7083 24.344ZM93.2643 21.788C93.9123 21.788 94.5123 21.716 95.0643 21.572C95.6403 21.404 96.1683 21.188 96.6483 20.924L92.7603 16.532H97.4403L99.2043 18.512C99.6843 17.744 100.056 16.904 100.32 15.992C100.584 15.08 100.716 14.156 100.716 13.22C100.716 12.116 100.536 11.048 100.176 10.016C99.8403 8.984 99.3483 8.072 98.7003 7.28C98.0763 6.488 97.2963 5.852 96.3603 5.372C95.4483 4.892 94.4163 4.652 93.2643 4.652C92.0643 4.652 90.9963 4.904 90.0603 5.408C89.1243 5.888 88.3443 6.536 87.7203 7.352C87.0963 8.168 86.6163 9.092 86.2803 10.124C85.9683 11.132 85.8123 12.164 85.8123 13.22C85.8123 14.324 85.9803 15.392 86.3163 16.424C86.6523 17.456 87.1323 18.368 87.7563 19.16C88.4043 19.952 89.1843 20.588 90.0963 21.068C91.0323 21.548 92.0883 21.788 93.2643 21.788Z" fill="#202020" fill-opacity="0.6"/>
</svg>
