<svg width="123" height="15" viewBox="0 0 123 15" fill="none" xmlns="http://www.w3.org/2000/svg">
<path d="M0.961047 5.96C0.961047 5.36267 1.06371 4.77 1.26905 4.182C1.48371 3.58467 1.79171 3.05267 2.19305 2.586C2.59438 2.11933 3.08905 1.74133 3.67705 1.452C4.26505 1.15333 4.93238 1.004 5.67905 1.004C6.56571 1.004 7.32171 1.20467 7.94705 1.606C8.58171 2.00733 9.04838 2.53 9.34705 3.174L8.57705 3.65C8.41838 3.32333 8.22238 3.048 7.98905 2.824C7.76505 2.6 7.52238 2.418 7.26105 2.278C6.99971 2.138 6.72905 2.04 6.44905 1.984C6.16905 1.91867 5.89371 1.886 5.62305 1.886C5.02571 1.886 4.49838 2.00733 4.04105 2.25C3.58371 2.49267 3.19638 2.81 2.87905 3.202C2.57105 3.594 2.33771 4.03733 2.17905 4.532C2.02038 5.01733 1.94105 5.512 1.94105 6.016C1.94105 6.56667 2.03438 7.094 2.22105 7.598C2.41705 8.102 2.67838 8.55 3.00505 8.942C3.34105 9.32467 3.73305 9.63267 4.18105 9.866C4.63838 10.09 5.13305 10.202 5.66505 10.202C5.94505 10.202 6.22971 10.1693 6.51905 10.104C6.81771 10.0293 7.10238 9.91733 7.37305 9.768C7.65305 9.60933 7.90971 9.418 8.14305 9.194C8.37638 8.96067 8.57238 8.68067 8.73105 8.354L9.54305 8.774C9.38438 9.14733 9.16038 9.47867 8.87105 9.768C8.58171 10.048 8.25971 10.286 7.90505 10.482C7.55038 10.678 7.17238 10.8273 6.77105 10.93C6.37905 11.0327 5.99171 11.084 5.60905 11.084C4.92771 11.084 4.30238 10.9347 3.73305 10.636C3.16371 10.3373 2.67371 9.95 2.26305 9.474C1.85238 8.98867 1.53038 8.44267 1.29705 7.836C1.07305 7.22 0.961047 6.59467 0.961047 5.96ZM14.1287 11.14C13.5967 11.14 13.1114 11.042 12.6727 10.846C12.234 10.6407 11.8514 10.3653 11.5247 10.02C11.2074 9.67467 10.96 9.27333 10.7827 8.816C10.6054 8.35867 10.5167 7.878 10.5167 7.374C10.5167 6.86067 10.6054 6.37533 10.7827 5.918C10.9694 5.46067 11.2214 5.05933 11.5387 4.714C11.8654 4.36867 12.248 4.09333 12.6867 3.888C13.1254 3.68267 13.606 3.58 14.1287 3.58C14.6514 3.58 15.132 3.68267 15.5707 3.888C16.0187 4.09333 16.4014 4.36867 16.7187 4.714C17.0454 5.05933 17.2974 5.46067 17.4747 5.918C17.6614 6.37533 17.7547 6.86067 17.7547 7.374C17.7547 7.878 17.666 8.35867 17.4887 8.816C17.3114 9.27333 17.0594 9.67467 16.7327 10.02C16.4154 10.3653 16.0327 10.6407 15.5847 10.846C15.146 11.042 14.6607 11.14 14.1287 11.14ZM11.4827 7.388C11.4827 7.79867 11.5527 8.18133 11.6927 8.536C11.8327 8.88133 12.0194 9.18933 12.2527 9.46C12.4954 9.72133 12.7754 9.92667 13.0927 10.076C13.4194 10.2253 13.7647 10.3 14.1287 10.3C14.4927 10.3 14.8334 10.2253 15.1507 10.076C15.4774 9.91733 15.762 9.70733 16.0047 9.446C16.2474 9.17533 16.4387 8.86267 16.5787 8.508C16.7187 8.15333 16.7887 7.77067 16.7887 7.36C16.7887 6.95867 16.7187 6.58067 16.5787 6.226C16.4387 5.862 16.2474 5.54933 16.0047 5.288C15.762 5.01733 15.4774 4.80733 15.1507 4.658C14.8334 4.49933 14.4927 4.42 14.1287 4.42C13.7647 4.42 13.424 4.49933 13.1067 4.658C12.7894 4.80733 12.5094 5.01733 12.2667 5.288C12.024 5.55867 11.8327 5.876 11.6927 6.24C11.5527 6.59467 11.4827 6.97733 11.4827 7.388ZM23.0709 11.14C22.4549 11.14 21.9089 10.986 21.4329 10.678C20.9662 10.3607 20.5882 9.964 20.2989 9.488V13.982H19.3469V3.706H20.2009V5.12C20.4995 4.66267 20.8869 4.294 21.3629 4.014C21.8389 3.72467 22.3569 3.58 22.9169 3.58C23.4209 3.58 23.8829 3.68733 24.3029 3.902C24.7229 4.10733 25.0869 4.38733 25.3949 4.742C25.7029 5.08733 25.9409 5.48867 26.1089 5.946C26.2862 6.40333 26.3749 6.87467 26.3749 7.36C26.3749 7.87333 26.2955 8.35867 26.1369 8.816C25.9782 9.27333 25.7495 9.67467 25.4509 10.02C25.1615 10.3653 24.8115 10.6407 24.4009 10.846C23.9995 11.042 23.5562 11.14 23.0709 11.14ZM22.8049 10.3C23.1969 10.3 23.5515 10.216 23.8689 10.048C24.1955 9.88 24.4709 9.66067 24.6949 9.39C24.9282 9.11 25.1055 8.79733 25.2269 8.452C25.3482 8.09733 25.4089 7.73333 25.4089 7.36C25.4089 6.968 25.3389 6.59467 25.1989 6.24C25.0589 5.88533 24.8675 5.57267 24.6249 5.302C24.3822 5.03133 24.0929 4.81667 23.7569 4.658C23.4302 4.49933 23.0755 4.42 22.6929 4.42C22.4502 4.42 22.1935 4.47133 21.9229 4.574C21.6615 4.66733 21.4142 4.798 21.1809 4.966C20.9569 5.12467 20.7609 5.316 20.5929 5.54C20.4342 5.75467 20.3362 5.98333 20.2989 6.226V8.466C20.4109 8.72733 20.5509 8.97 20.7189 9.194C20.8962 9.418 21.0922 9.614 21.3069 9.782C21.5309 9.94067 21.7689 10.0667 22.0209 10.16C22.2729 10.2533 22.5342 10.3 22.8049 10.3ZM28.1614 13.24C28.2361 13.2493 28.3061 13.254 28.3714 13.254C28.4461 13.2633 28.5161 13.268 28.5814 13.268C28.7494 13.268 28.8801 13.2447 28.9734 13.198C29.0761 13.1513 29.1741 13.0487 29.2674 12.89C29.3607 12.7313 29.4634 12.5027 29.5754 12.204C29.6967 11.9053 29.8647 11.504 30.0794 11L26.9014 3.706H27.8814L30.5834 10.118L33.0894 3.706H33.9994L30.2194 13.114C30.1167 13.3847 29.9441 13.618 29.7014 13.814C29.4681 14.0193 29.1461 14.122 28.7354 14.122C28.6421 14.122 28.5534 14.1173 28.4694 14.108C28.3854 14.108 28.2827 14.0987 28.1614 14.08V13.24ZM38.9693 4.546C38.3253 4.56467 37.7653 4.742 37.2893 5.078C36.8133 5.414 36.4773 5.876 36.2813 6.464V11H35.3293V3.706H36.2253V5.456C36.496 4.896 36.86 4.45733 37.3173 4.14C37.7746 3.82267 38.2646 3.664 38.7873 3.664C38.862 3.664 38.9226 3.66867 38.9693 3.678V4.546ZM40.2375 11V3.706H41.1895V11H40.2375ZM40.2375 2.18V0.78H41.1895V2.18H40.2375ZM46.2123 11.098C45.7083 11.098 45.2463 10.9953 44.8263 10.79C44.4157 10.5753 44.0563 10.2953 43.7483 9.95C43.4497 9.60467 43.2163 9.208 43.0483 8.76C42.8803 8.312 42.7963 7.85 42.7963 7.374C42.7963 6.87 42.8757 6.38933 43.0343 5.932C43.2023 5.46533 43.4357 5.05933 43.7343 4.714C44.033 4.36867 44.3877 4.09333 44.7983 3.888C45.2183 3.68267 45.6803 3.58 46.1843 3.58C46.8097 3.58 47.351 3.73867 47.8083 4.056C48.2657 4.364 48.6577 4.756 48.9843 5.232V3.706H49.8383V11.028C49.8383 11.532 49.7403 11.9753 49.5443 12.358C49.3577 12.75 49.101 13.0767 48.7743 13.338C48.457 13.5993 48.079 13.7953 47.6403 13.926C47.211 14.0567 46.7537 14.122 46.2683 14.122C45.4283 14.122 44.7517 13.9727 44.2383 13.674C43.725 13.3753 43.3097 12.974 42.9923 12.47L43.5803 12.008C43.8697 12.4747 44.2523 12.8153 44.7283 13.03C45.2043 13.254 45.7177 13.366 46.2683 13.366C46.623 13.366 46.959 13.3147 47.2763 13.212C47.5937 13.1187 47.869 12.974 48.1023 12.778C48.345 12.5913 48.5363 12.3487 48.6763 12.05C48.8163 11.7607 48.8863 11.42 48.8863 11.028V9.586C48.6063 10.0527 48.2237 10.4213 47.7383 10.692C47.253 10.9627 46.7443 11.098 46.2123 11.098ZM46.4783 10.3C46.7583 10.3 47.0337 10.2487 47.3043 10.146C47.575 10.0433 47.8177 9.908 48.0323 9.74C48.2563 9.56267 48.443 9.36667 48.5923 9.152C48.7417 8.93733 48.8397 8.718 48.8863 8.494V6.24C48.7837 5.97867 48.6437 5.736 48.4663 5.512C48.289 5.288 48.0883 5.09667 47.8643 4.938C47.6403 4.77933 47.3977 4.65333 47.1363 4.56C46.8843 4.46667 46.6277 4.42 46.3663 4.42C45.9557 4.42 45.587 4.50867 45.2603 4.686C44.943 4.854 44.6723 5.078 44.4483 5.358C44.2243 5.638 44.0517 5.95533 43.9303 6.31C43.8183 6.66467 43.7623 7.024 43.7623 7.388C43.7623 7.78 43.8323 8.15333 43.9723 8.508C44.1123 8.86267 44.3037 9.17533 44.5463 9.446C44.7983 9.70733 45.0877 9.91733 45.4143 10.076C45.741 10.2253 46.0957 10.3 46.4783 10.3ZM58.0726 11H57.1206V6.926C57.1206 6.09533 56.976 5.47467 56.6866 5.064C56.4066 4.65333 55.9913 4.448 55.4406 4.448C55.17 4.448 54.8993 4.504 54.6286 4.616C54.3673 4.71867 54.12 4.86333 53.8866 5.05C53.6533 5.23667 53.448 5.456 53.2706 5.708C53.1026 5.96 52.9766 6.23533 52.8926 6.534V11H51.9406V0.78H52.8926V5.358C53.182 4.80733 53.5833 4.37333 54.0966 4.056C54.61 3.73867 55.1653 3.58 55.7626 3.58C56.1826 3.58 56.5373 3.65933 56.8266 3.818C57.116 3.96733 57.354 4.182 57.5406 4.462C57.7273 4.73267 57.8626 5.064 57.9466 5.456C58.0306 5.83867 58.0726 6.26333 58.0726 6.73V11ZM63.5344 10.65C63.4784 10.678 63.3944 10.7153 63.2824 10.762C63.1797 10.8087 63.0584 10.8553 62.9184 10.902C62.7784 10.9487 62.6197 10.9907 62.4424 11.028C62.265 11.0653 62.0784 11.084 61.8824 11.084C61.677 11.084 61.481 11.056 61.2944 11C61.1077 10.944 60.9444 10.86 60.8044 10.748C60.6644 10.6267 60.5524 10.4773 60.4684 10.3C60.3844 10.1227 60.3424 9.91733 60.3424 9.684V4.462H59.3344V3.706H60.3424V1.242H61.2944V3.706H62.9744V4.462H61.2944V9.418C61.313 9.68867 61.4064 9.88933 61.5744 10.02C61.7517 10.1413 61.9524 10.202 62.1764 10.202C62.447 10.202 62.685 10.16 62.8904 10.076C63.0957 9.98267 63.2264 9.91733 63.2824 9.88L63.5344 10.65ZM73.0522 11.098C72.3149 11.098 71.6289 10.972 70.9942 10.72C70.3689 10.4587 69.8275 10.104 69.3702 9.656C68.9129 9.19867 68.5535 8.662 68.2922 8.046C68.0402 7.43 67.9142 6.758 67.9142 6.03C67.9142 5.31133 68.0402 4.644 68.2922 4.028C68.5535 3.412 68.9129 2.88 69.3702 2.432C69.8275 1.984 70.3689 1.634 70.9942 1.382C71.6289 1.12067 72.3149 0.99 73.0522 0.99C73.7895 0.99 74.4755 1.12067 75.1102 1.382C75.7449 1.634 76.2909 1.984 76.7482 2.432C77.2055 2.88 77.5649 3.412 77.8262 4.028C78.0875 4.644 78.2182 5.31133 78.2182 6.03C78.2182 6.758 78.0875 7.43 77.8262 8.046C77.5649 8.662 77.2055 9.19867 76.7482 9.656C76.2909 10.104 75.7449 10.4587 75.1102 10.72C74.4755 10.972 73.7895 11.098 73.0522 11.098ZM73.0522 10.636C73.7055 10.636 74.3169 10.524 74.8862 10.3C75.4555 10.076 75.9502 9.76333 76.3702 9.362C76.7902 8.96067 77.1215 8.48 77.3642 7.92C77.6069 7.36 77.7282 6.73933 77.7282 6.058C77.7282 5.39533 77.6115 4.784 77.3782 4.224C77.1449 3.664 76.8182 3.17867 76.3982 2.768C75.9782 2.35733 75.4835 2.03533 74.9142 1.802C74.3449 1.56867 73.7242 1.452 73.0522 1.452C72.3895 1.452 71.7735 1.56867 71.2042 1.802C70.6349 2.03533 70.1402 2.35733 69.7202 2.768C69.3095 3.16933 68.9875 3.65467 68.7542 4.224C68.5209 4.784 68.4042 5.39067 68.4042 6.044C68.4042 6.69733 68.5209 7.304 68.7542 7.864C68.9875 8.424 69.3095 8.90933 69.7202 9.32C70.1402 9.73067 70.6302 10.0527 71.1902 10.286C71.7595 10.5193 72.3802 10.636 73.0522 10.636ZM73.1642 9.278C72.7349 9.278 72.3242 9.20333 71.9322 9.054C71.5402 8.89533 71.1902 8.676 70.8822 8.396C70.5835 8.116 70.3409 7.77533 70.1542 7.374C69.9769 6.97267 69.8882 6.52467 69.8882 6.03C69.8882 5.638 69.9535 5.246 70.0842 4.854C70.2149 4.462 70.4109 4.112 70.6722 3.804C70.9335 3.496 71.2649 3.244 71.6662 3.048C72.0675 2.852 72.5389 2.754 73.0802 2.754C73.6962 2.754 74.2422 2.88933 74.7182 3.16C75.2035 3.42133 75.5535 3.804 75.7682 4.308L74.8442 4.602C74.7509 4.39667 74.6295 4.22867 74.4802 4.098C74.3402 3.96733 74.1862 3.86467 74.0182 3.79C73.8595 3.71533 73.6962 3.664 73.5282 3.636C73.3695 3.608 73.2202 3.594 73.0802 3.594C72.7069 3.594 72.3802 3.66867 72.1002 3.818C71.8295 3.958 71.6009 4.14467 71.4142 4.378C71.2369 4.602 71.1015 4.86333 71.0082 5.162C70.9149 5.45133 70.8682 5.74067 70.8682 6.03C70.8682 6.41267 70.9382 6.758 71.0782 7.066C71.2182 7.36467 71.3955 7.61667 71.6102 7.822C71.8249 8.02733 72.0629 8.186 72.3242 8.298C72.5949 8.40067 72.8562 8.452 73.1082 8.452C73.4629 8.452 73.8175 8.35867 74.1722 8.172C74.5269 7.976 74.7835 7.71467 74.9422 7.388L75.8662 7.654C75.8009 7.822 75.6889 8.004 75.5302 8.2C75.3715 8.38667 75.1755 8.564 74.9422 8.732C74.7089 8.89067 74.4429 9.02133 74.1442 9.124C73.8455 9.22667 73.5189 9.278 73.1642 9.278ZM89.515 2.922C89.235 2.60467 88.8617 2.348 88.395 2.152C87.9283 1.956 87.3963 1.858 86.799 1.858C85.9217 1.858 85.2823 2.026 84.881 2.362C84.4797 2.68867 84.279 3.13667 84.279 3.706C84.279 4.00467 84.3303 4.252 84.433 4.448C84.545 4.63467 84.713 4.798 84.937 4.938C85.161 5.078 85.4457 5.19933 85.791 5.302C86.1457 5.40467 86.561 5.50733 87.037 5.61C87.569 5.722 88.045 5.848 88.465 5.988C88.8943 6.128 89.2583 6.30533 89.557 6.52C89.8557 6.72533 90.0843 6.97733 90.243 7.276C90.4017 7.57467 90.481 7.948 90.481 8.396C90.481 8.85333 90.3923 9.25 90.215 9.586C90.0377 9.922 89.7903 10.202 89.473 10.426C89.1557 10.65 88.7777 10.818 88.339 10.93C87.9003 11.0327 87.4197 11.084 86.897 11.084C85.357 11.084 84.027 10.6033 82.907 9.642L83.397 8.844C83.5743 9.03067 83.7843 9.208 84.027 9.376C84.279 9.544 84.5543 9.69333 84.853 9.824C85.161 9.94533 85.4877 10.0433 85.833 10.118C86.1783 10.1833 86.5423 10.216 86.925 10.216C87.7183 10.216 88.3343 10.076 88.773 9.796C89.221 9.50667 89.445 9.07267 89.445 8.494C89.445 8.186 89.3797 7.92933 89.249 7.724C89.1277 7.50933 88.941 7.32733 88.689 7.178C88.437 7.01933 88.1243 6.884 87.751 6.772C87.3777 6.66 86.9437 6.548 86.449 6.436C85.9263 6.31467 85.469 6.18867 85.077 6.058C84.685 5.92733 84.3537 5.764 84.083 5.568C83.8123 5.372 83.607 5.13867 83.467 4.868C83.3363 4.588 83.271 4.24733 83.271 3.846C83.271 3.38867 83.355 2.98267 83.523 2.628C83.7003 2.264 83.9477 1.96533 84.265 1.732C84.5823 1.48933 84.9557 1.30733 85.385 1.186C85.8143 1.05533 86.2903 0.99 86.813 0.99C87.4757 0.99 88.0637 1.09267 88.577 1.298C89.0997 1.494 89.571 1.774 89.991 2.138L89.515 2.922ZM95.7369 11.14C95.1209 11.14 94.5749 10.986 94.0989 10.678C93.6322 10.3607 93.2542 9.964 92.9649 9.488V13.982H92.0129V3.706H92.8669V5.12C93.1656 4.66267 93.5529 4.294 94.0289 4.014C94.5049 3.72467 95.0229 3.58 95.5829 3.58C96.0869 3.58 96.5489 3.68733 96.9689 3.902C97.3889 4.10733 97.7529 4.38733 98.0609 4.742C98.3689 5.08733 98.6069 5.48867 98.7749 5.946C98.9522 6.40333 99.0409 6.87467 99.0409 7.36C99.0409 7.87333 98.9616 8.35867 98.8029 8.816C98.6442 9.27333 98.4156 9.67467 98.1169 10.02C97.8276 10.3653 97.4776 10.6407 97.0669 10.846C96.6656 11.042 96.2222 11.14 95.7369 11.14ZM95.4709 10.3C95.8629 10.3 96.2176 10.216 96.5349 10.048C96.8616 9.88 97.1369 9.66067 97.3609 9.39C97.5942 9.11 97.7716 8.79733 97.8929 8.452C98.0142 8.09733 98.0749 7.73333 98.0749 7.36C98.0749 6.968 98.0049 6.59467 97.8649 6.24C97.7249 5.88533 97.5336 5.57267 97.2909 5.302C97.0482 5.03133 96.7589 4.81667 96.4229 4.658C96.0962 4.49933 95.7416 4.42 95.3589 4.42C95.1162 4.42 94.8596 4.47133 94.5889 4.574C94.3276 4.66733 94.0802 4.798 93.8469 4.966C93.6229 5.12467 93.4269 5.316 93.2589 5.54C93.1002 5.75467 93.0022 5.98333 92.9649 6.226V8.466C93.0769 8.72733 93.2169 8.97 93.3849 9.194C93.5622 9.418 93.7582 9.614 93.9729 9.782C94.1969 9.94067 94.4349 10.0667 94.6869 10.16C94.9389 10.2533 95.2002 10.3 95.4709 10.3ZM102.488 11.14C102.142 11.14 101.82 11.084 101.522 10.972C101.232 10.8507 100.976 10.6873 100.752 10.482C100.537 10.2767 100.369 10.0387 100.248 9.768C100.126 9.488 100.066 9.18933 100.066 8.872C100.066 8.55467 100.14 8.26067 100.29 7.99C100.439 7.71933 100.649 7.486 100.92 7.29C101.19 7.094 101.512 6.94467 101.886 6.842C102.259 6.73 102.67 6.674 103.118 6.674C103.491 6.674 103.869 6.70667 104.252 6.772C104.634 6.83733 104.975 6.93067 105.274 7.052V6.394C105.274 5.75 105.092 5.24133 104.728 4.868C104.364 4.48533 103.86 4.294 103.216 4.294C102.842 4.294 102.46 4.36867 102.068 4.518C101.676 4.66733 101.279 4.882 100.878 5.162L100.542 4.532C101.484 3.89733 102.399 3.58 103.286 3.58C104.2 3.58 104.919 3.83667 105.442 4.35C105.964 4.86333 106.226 5.57267 106.226 6.478V9.768C106.226 10.0293 106.342 10.16 106.576 10.16V11C106.417 11.028 106.296 11.042 106.212 11.042C105.969 11.042 105.778 10.9813 105.638 10.86C105.507 10.7387 105.437 10.5707 105.428 10.356L105.4 9.782C105.064 10.2207 104.639 10.5567 104.126 10.79C103.622 11.0233 103.076 11.14 102.488 11.14ZM102.712 10.412C103.206 10.412 103.659 10.3187 104.07 10.132C104.49 9.94533 104.807 9.698 105.022 9.39C105.106 9.306 105.166 9.21733 105.204 9.124C105.25 9.02133 105.274 8.928 105.274 8.844V7.654C104.956 7.53267 104.625 7.43933 104.28 7.374C103.944 7.30867 103.598 7.276 103.244 7.276C102.572 7.276 102.026 7.416 101.606 7.696C101.186 7.976 100.976 8.34467 100.976 8.802C100.976 9.026 101.018 9.236 101.102 9.432C101.195 9.628 101.316 9.80067 101.466 9.95C101.624 10.09 101.811 10.202 102.026 10.286C102.24 10.37 102.469 10.412 102.712 10.412ZM111.922 4.546C111.278 4.56467 110.718 4.742 110.242 5.078C109.766 5.414 109.43 5.876 109.234 6.464V11H108.282V3.706H109.178V5.456C109.449 4.896 109.813 4.45733 110.27 4.14C110.728 3.82267 111.218 3.664 111.74 3.664C111.815 3.664 111.876 3.66867 111.922 3.678V4.546ZM120.107 10.118C119.724 10.4167 119.304 10.65 118.847 10.818C118.399 10.986 117.913 11.07 117.391 11.07C116.7 11.07 116.065 10.9253 115.487 10.636C114.917 10.3467 114.427 9.96867 114.017 9.502C113.606 9.03533 113.289 8.49867 113.065 7.892C112.841 7.28533 112.729 6.66467 112.729 6.03C112.729 5.36733 112.845 4.73267 113.079 4.126C113.321 3.51933 113.653 2.98267 114.073 2.516C114.493 2.04933 114.987 1.68067 115.557 1.41C116.126 1.13 116.742 0.99 117.405 0.99C118.095 0.99 118.725 1.13933 119.295 1.438C119.873 1.72733 120.363 2.11 120.765 2.586C121.175 3.062 121.493 3.60333 121.717 4.21C121.941 4.80733 122.053 5.41867 122.053 6.044C122.053 6.72533 121.927 7.374 121.675 7.99C121.432 8.606 121.091 9.14733 120.653 9.614L121.829 11H120.863L120.107 10.118ZM117.391 10.188C117.811 10.188 118.198 10.1227 118.553 9.992C118.907 9.852 119.234 9.66533 119.533 9.432L118.287 7.948H119.253L120.051 8.9C120.377 8.508 120.629 8.06467 120.807 7.57C120.984 7.066 121.073 6.55267 121.073 6.03C121.073 5.48867 120.979 4.97067 120.793 4.476C120.615 3.972 120.363 3.52867 120.037 3.146C119.71 2.76333 119.323 2.45533 118.875 2.222C118.427 1.98867 117.932 1.872 117.391 1.872C116.831 1.872 116.322 1.99333 115.865 2.236C115.407 2.46933 115.02 2.782 114.703 3.174C114.385 3.566 114.138 4.014 113.961 4.518C113.793 5.01267 113.709 5.51667 113.709 6.03C113.709 6.57133 113.797 7.094 113.975 7.598C114.152 8.09267 114.404 8.536 114.731 8.928C115.057 9.31067 115.445 9.61867 115.893 9.852C116.341 10.076 116.84 10.188 117.391 10.188Z" fill="#202020"/>
</svg>
